<svg width="20" height="17" viewBox="0 0 20 17" fill="#E64646" xmlns="http://www.w3.org/2000/svg" stroke-width="2">
<path d="M9.29804 2.53108L9.99426 3.20585L10.6902 2.53082L10.8007 2.42367C11.7649 1.52314 12.8388 1.06012 14.0252 1.0055L14.276 1.00001C16.8801 1.00563 19 3.11988 19 5.71723C19 7.04406 18.7773 7.9384 18.0934 8.92458C17.3603 9.98172 16.0759 11.1764 13.8036 12.9964C13.803 12.9969 13.8024 12.9974 13.8018 12.9979L12.8757 13.732L10.5148 15.572C10.2121 15.8079 9.78786 15.8079 9.48517 15.572L6.80001 13.4765C4.26273 11.4716 2.82462 10.1853 2.00314 9.06033C1.23952 8.01462 1 7.09578 1 5.71723C1 3.11642 3.12557 1 5.73438 1C6.99609 1 8.14429 1.46205 9.18496 2.42148L9.29804 2.53108Z" fill="inherit" stroke="black" stroke-width="inherit"/>
</svg>
